<svg width="103" height="48" viewBox="0 0 103 48" fill="none" xmlns="http://www.w3.org/2000/svg">
<path d="M33.24 14.8V31.6C33.24 33.5467 32.8667 35.36 32.12 37.04C31.48 38.64 30.48 40.12 29.12 41.48C27.76 42.84 26.28 43.84 24.68 44.48C23 45.2267 21.1867 45.6 19.24 45.6C17.2933 45.6 15.48 45.2267 13.8 44.48C12.2 43.84 10.72 42.84 9.36 41.48L5.36 37.48C4 36.12 3 34.64 2.36 33.04C1.61333 31.36 1.24 29.5467 1.24 27.6V10.8H10.04L14.04 14.8V31.6C14.04 31.9467 14.08 32.3067 14.16 32.68C14.5067 32.76 14.8667 32.8 15.24 32.8C16.6267 32.8 17.8533 32.2933 18.92 31.28C19.9333 30.2133 20.44 28.9867 20.44 27.6V10.8H29.24L33.24 14.8ZM61.4697 34.2L65.4697 38.2L64.7497 39.16C63.203 41.1867 61.2564 42.76 58.9097 43.88C56.563 45.0267 54.0697 45.6 51.4297 45.6C49.1897 45.6 47.0697 45.2 45.0697 44.4C43.123 43.6533 41.3764 42.5467 39.8297 41.08C39.8297 41.08 39.723 40.9733 39.5097 40.76L35.5497 36.8C34.1097 35.36 33.0297 33.8 32.3097 32.12C31.4297 30.2 30.9897 28.16 30.9897 26C30.9897 23.8667 31.4297 21.84 32.3097 19.92C33.1097 18.08 34.283 16.4267 35.8297 14.96C37.3764 13.4933 39.123 12.3867 41.0697 11.64C43.123 10.8133 45.243 10.4 47.4297 10.4C49.6964 10.4 51.8697 10.8267 53.9497 11.68C56.0297 12.5333 57.8297 13.7467 59.3497 15.32L63.3097 19.28C63.763 19.68 64.243 20.2133 64.7497 20.88L65.4697 21.84L58.4297 27.12L55.6697 24.36C54.3364 23.5867 52.923 23.2 51.4297 23.2C50.043 23.2 48.763 23.5067 47.5897 24.12C46.443 24.7333 45.523 25.56 44.8297 26.6C44.1364 27.64 43.7897 28.7733 43.7897 30C43.7897 30.8 43.923 31.52 44.1897 32.16C45.123 32.5867 46.203 32.8 47.4297 32.8C48.7097 32.8 49.8964 32.5467 50.9897 32.04C52.1097 31.5067 53.0164 30.7733 53.7097 29.84L54.4297 28.92L61.4697 34.2ZM91.8919 29.4C92.5585 30.2267 93.0652 31.16 93.4119 32.2C93.7852 33.24 93.9719 34.3067 93.9719 35.4C93.9719 36.68 93.7319 37.9067 93.2519 39.08C92.7719 40.2533 92.0785 41.3067 91.1719 42.24C90.2652 43.1467 89.2252 43.8533 88.0519 44.36C86.9052 44.8667 85.6919 45.1467 84.4119 45.2H66.7719L62.7719 41.2V10.8H79.6119C80.8919 10.8533 82.1052 11.1333 83.2519 11.64C84.4252 12.1467 85.4652 12.8533 86.3719 13.76L90.3719 17.76C91.2785 18.6933 91.9719 19.7467 92.4519 20.92C92.9319 22.0933 93.1719 23.32 93.1719 24.6C93.1719 26.3333 92.7452 27.9333 91.8919 29.4ZM101.596 37.72C102.503 38.6267 102.956 39.72 102.956 41C102.956 42.2533 102.503 43.3333 101.596 44.24C100.69 45.1467 99.6096 45.6 98.3563 45.6C97.0763 45.6 95.9829 45.1467 95.0763 44.24L91.1163 40.28C90.2096 39.3733 89.7562 38.28 89.7562 37C89.7562 35.7467 90.2096 34.6667 91.1163 33.76C92.0229 32.8533 93.1029 32.4 94.3563 32.4C95.6363 32.4 96.7296 32.8533 97.6363 33.76L101.596 37.72Z" fill="white"/>
<path d="M16.24 40.4C13.92 40.4 11.7733 39.8267 9.8 38.68C7.85333 37.5333 6.30667 35.9867 5.16 34.04C4.01333 32.0667 3.44 29.92 3.44 27.6V12H9.84V27.6C9.84 28.7467 10.12 29.8133 10.68 30.8C11.2667 31.7867 12.0533 32.5733 13.04 33.16C14.0267 33.72 15.0933 34 16.24 34C17.3867 34 18.4533 33.72 19.44 33.16C20.4267 32.5733 21.2 31.7867 21.76 30.8C22.3467 29.8133 22.64 28.7467 22.64 27.6V12H29.04V27.6C29.04 29.92 28.4667 32.0667 27.32 34.04C26.1733 35.9867 24.6133 37.5333 22.64 38.68C20.6933 39.8267 18.56 40.4 16.24 40.4ZM48.4297 40.4C45.683 40.4 43.1364 39.76 40.7897 38.48C38.4697 37.1733 36.6164 35.4267 35.2297 33.24C33.8697 31.0267 33.1897 28.6133 33.1897 26C33.1897 23.3867 33.8697 20.9867 35.2297 18.8C36.6164 16.5867 38.4697 14.84 40.7897 13.56C43.1364 12.2533 45.683 11.6 48.4297 11.6C50.883 11.6 53.203 12.1333 55.3897 13.2C57.5764 14.2667 59.3764 15.7333 60.7897 17.6L55.6697 21.44C54.843 20.3733 53.7897 19.5333 52.5097 18.92C51.2297 18.3067 49.8697 18 48.4297 18C46.8297 18 45.3497 18.36 43.9897 19.08C42.6564 19.8 41.5897 20.7733 40.7897 22C39.9897 23.2267 39.5897 24.56 39.5897 26C39.5897 27.44 39.9897 28.7733 40.7897 30C41.5897 31.2267 42.6564 32.2 43.9897 32.92C45.3497 33.64 46.8297 34 48.4297 34C49.8697 34 51.2297 33.6933 52.5097 33.08C53.7897 32.4667 54.843 31.6267 55.6697 30.56L60.7897 34.4C59.3764 36.2667 57.5764 37.7333 55.3897 38.8C53.203 39.8667 50.883 40.4 48.4297 40.4ZM64.9719 12H80.5719C82.0919 12.0267 83.4919 12.44 84.7719 13.24C86.0785 14.0133 87.1052 15.0533 87.8519 16.36C88.5985 17.6667 88.9719 19.08 88.9719 20.6C88.9719 22.4133 88.4519 24.0533 87.4119 25.52C88.1585 26.2933 88.7319 27.1867 89.1319 28.2C89.5585 29.2133 89.7719 30.28 89.7719 31.4C89.7719 32.92 89.3985 34.3333 88.6519 35.64C87.9052 36.9467 86.8785 38 85.5719 38.8C84.2919 39.5733 82.8919 39.9733 81.3719 40H64.9719V12ZM80.3719 22.8C80.9852 22.8 81.5052 22.5867 81.9319 22.16C82.3585 21.7067 82.5719 21.1867 82.5719 20.6C82.5719 19.9867 82.3585 19.4667 81.9319 19.04C81.5052 18.6133 80.9852 18.4 80.3719 18.4H71.3719V22.8H80.3719ZM81.1719 33.6C81.7852 33.6 82.3052 33.3867 82.7319 32.96C83.1585 32.5067 83.3719 31.9867 83.3719 31.4C83.3719 30.7867 83.1585 30.2667 82.7319 29.84C82.3052 29.4133 81.7852 29.2 81.1719 29.2H71.3719V33.6H81.1719ZM95.3563 40.4C94.4229 40.4 93.6229 40.0667 92.9563 39.4C92.2896 38.7333 91.9563 37.9333 91.9563 37C91.9563 36.0667 92.2896 35.2667 92.9563 34.6C93.6229 33.9333 94.4229 33.6 95.3563 33.6C96.2896 33.6 97.0896 33.9333 97.7563 34.6C98.4229 35.2667 98.7563 36.0667 98.7563 37C98.7563 37.9333 98.4229 38.7333 97.7563 39.4C97.0896 40.0667 96.2896 40.4 95.3563 40.4Z" fill="#1989C1"/>
</svg>
