<svg width="137" height="119" viewBox="0 0 137 119" fill="none" xmlns="http://www.w3.org/2000/svg">
<path fill-rule="evenodd" clip-rule="evenodd" d="M130 59.4587V59.4587L129.094 60.0676L128.221 60.6591L127.38 61.2343L126.569 61.7941L125.786 62.3395L125.031 62.8714L124.301 63.3905L123.595 63.8977L122.913 64.3937L122.253 64.879L121.614 65.3544L120.995 65.8204L120.396 66.2777L119.814 66.7267L119.251 67.1679L118.704 67.6019L118.173 68.029L117.657 68.4498L117.157 68.8646L116.67 69.2738L116.198 69.6778L115.738 70.0769L115.291 70.4716L114.856 70.862L114.432 71.2486L114.02 71.6317L113.619 72.0115L113.228 72.3883L112.847 72.7625L112.475 73.1342L112.113 73.5037L111.761 73.8714L111.416 74.2373L111.081 74.6019L110.753 74.9652L110.433 75.3276L110.121 75.6892L109.816 76.0504L109.519 76.4112L109.228 76.772L108.944 77.1329L108.666 77.4941L108.395 77.8559L108.13 78.2185L107.871 78.582L107.618 78.9467L107.37 79.3128L107.128 79.6805L106.891 80.05L106.66 80.4215L106.433 80.7952L106.211 81.1714L105.994 81.5502L105.782 81.9319L105.574 82.3167L105.37 82.7048L105.171 83.0965L104.976 83.4919L104.785 83.8913L104.598 84.295L104.415 84.7033L104.236 85.1162L104.06 85.5342L103.888 85.9575L103.72 86.3864L103.555 86.8211L103.393 87.2619L103.235 87.7092L103.08 88.1633L102.928 88.6244L102.779 89.093L102.633 89.5694L102.49 90.0538L102.35 90.5469L102.213 91.0488L102.079 91.56L101.947 92.081L101.818 92.6121L101.692 93.154L101.568 93.707L101.447 94.2716L101.329 94.8484L101.212 95.438L101.098 96.041L100.987 96.6579L100.878 97.2894L100.771 97.9363L100.666 98.5992L100.563 99.279L100.463 99.9764L100.365 100.692L100.268 101.428L100.174 102.183L100.082 102.96L99.9919 103.76L99.9037 104.583L99.8175 105.431L99.7331 106.305L99.6506 107.207L99.5699 108.138L99.4911 109.1L99.414 110.094L99.3387 111.122L99.2652 112.187L98.9358 112.839L97.9664 112.362L97.0282 111.905L96.1194 111.467L95.2384 111.047L94.3837 110.644L93.5538 110.258L92.7473 109.887L91.9631 109.532L91.1998 109.191L90.4564 108.863L89.7319 108.549L89.0252 108.248L88.3355 107.959L87.6618 107.681L87.0034 107.415L86.3595 107.159L85.7293 106.915L85.1121 106.68L84.5073 106.455L83.9142 106.239L83.3323 106.033L82.7609 105.835L82.1996 105.646L81.6477 105.466L81.1049 105.293L80.5706 105.129L80.0444 104.972L79.5258 104.822L79.0145 104.68L78.51 104.546L78.0119 104.418L77.5199 104.297L77.0335 104.182L76.5525 104.075L76.0765 103.973L75.6052 103.878L75.1383 103.79L74.6754 103.707L74.2163 103.63L73.7606 103.56L73.308 103.495L72.8584 103.436L72.4113 103.383L71.9666 103.335L71.5239 103.294L71.0831 103.257L70.6438 103.227L70.2057 103.202L69.7687 103.182L69.3325 103.168L68.8968 103.159L68.4613 103.156L68.0259 103.158L67.5903 103.166L67.1541 103.179L66.7173 103.198L66.2794 103.222L65.8403 103.252L65.3997 103.287L64.9574 103.328L64.513 103.375L64.0664 103.427L63.6171 103.485L63.1651 103.549L62.7099 103.619L62.2513 103.694L61.789 103.776L61.3228 103.864L60.8522 103.958L60.377 104.058L59.8968 104.165L59.4113 104.278L58.9202 104.398L58.4231 104.525L57.9197 104.659L57.4094 104.799L56.892 104.948L56.3671 105.103L55.8341 105.267L55.2927 105.438L54.7423 105.617L54.1825 105.805L53.6128 106.001L53.0326 106.206L52.4413 106.42L51.8384 106.643L51.2233 106.877L50.5952 107.12L49.9535 107.373L49.2974 107.638L48.6262 107.914L47.9391 108.201L47.2352 108.5L46.5136 108.812L45.7733 109.138L45.0132 109.476L44.2324 109.829L43.4295 110.198L42.6034 110.581L41.7528 110.981L40.8761 111.398L39.9718 111.834L39.0384 112.288L38.0741 112.762L37.5997 112.36L37.5264 111.289L37.4514 110.255L37.3747 109.256L37.2961 108.289L37.2157 107.353L37.1335 106.447L37.0495 105.568L36.9635 104.716L36.8756 103.889L36.7858 103.086L36.6939 102.305L36.6001 101.546L36.5042 100.808L36.4063 100.089L36.3062 99.3889L36.204 98.7064L36.0996 98.0408L35.993 97.3914L35.8841 96.7575L35.7729 96.1383L35.6594 95.5331L35.5435 94.9415L35.4252 94.3626L35.3044 93.7961L35.1811 93.2413L35.0552 92.6977L34.9267 92.1649L34.7956 91.6423L34.6617 91.1296L34.525 90.6262L34.3855 90.1318L34.2431 89.646L34.0978 89.1683L33.9494 88.6986L33.798 88.2362L33.6434 87.7811L33.4856 87.3327L33.3245 86.8909L33.1601 86.4552L32.9922 86.0254L32.8208 85.6013L32.6458 85.1825L32.4671 84.7687L32.2846 84.3598L32.0983 83.9553L31.908 83.5552L31.7136 83.1592L31.5151 82.767L31.3123 82.3783L31.1051 81.993L30.8934 81.6108L30.6771 81.2316L30.4561 80.855L30.2302 80.4809L29.9993 80.109L29.7632 79.7392L29.5219 79.3712L29.2751 79.0049L29.0228 78.64L28.7647 78.2763L28.5006 77.9136L28.2305 77.5517L27.9541 77.1904L27.6711 76.8294L27.3815 76.4687L27.085 76.1079L26.7814 75.7468L26.4705 75.3852L26.1519 75.023L25.8256 74.6598L25.4911 74.2955L25.1482 73.9297L24.7967 73.5624L24.4362 73.1932L24.0664 72.8218L23.687 72.4481L23.2976 72.0717L22.8979 71.6924L22.4875 71.3099L22.0659 70.9238L21.6327 70.534L21.1875 70.1401L20.7299 69.7417L20.2592 69.3385L19.775 68.9301L19.2766 68.5163L18.7637 68.0965L18.2353 67.6704L17.691 67.2375L17.13 66.7975L16.5516 66.3497L15.9549 65.8938L15.3392 65.4292L14.7034 64.9554L14.0467 64.4716L13.3681 63.9774L12.6664 63.4721L11.9405 62.9549L11.1891 62.4251L10.4109 61.8819L9.60452 61.3244L8.76835 60.7518L7.90077 60.1629L7 59.5569L7.61754 58.9456L8.49549 58.3514L9.34148 57.7737L10.1572 57.2114L10.9442 56.6638L11.704 56.1298L12.4379 55.6087L13.1471 55.0996L13.833 54.602L14.4966 54.115L15.1389 53.638L15.7609 53.1705L16.3636 52.7119L16.9477 52.2616L17.5142 51.8192L18.0637 51.3841L18.5971 50.9559L19.1149 50.5342L19.6178 50.1185L20.1064 49.7084L20.5814 49.3036L21.0431 48.9037L21.4922 48.5084L21.9292 48.1173L22.3544 47.7301L22.7683 47.3465L23.1714 46.9662L23.5641 46.5889L23.9466 46.2143L24.3194 45.8422L24.6829 45.4724L25.0372 45.1044L25.3828 44.7382L25.7199 44.3735L26.0488 44.0099L26.3698 43.6474L26.6832 43.2857L26.9891 42.9245L27.2879 42.5636L27.5796 42.2028L27.8646 41.842L28.1431 41.4808L28.4152 41.1191L28.6812 40.7567L28.9412 40.3933L29.1954 40.0288L29.4439 39.663L29.6869 39.2955L29.9246 38.9263L30.1572 38.5552L30.3846 38.1818L30.6072 37.806L30.825 37.4277L31.0381 37.0464L31.2467 36.6621L31.4509 36.2746L31.6508 35.8835L31.8465 35.4887L32.0381 35.0899L32.2257 34.6869L32.4094 34.2794L32.5893 33.8672L32.7654 33.4501L32.938 33.0276L33.107 32.5997L33.2725 32.1659L33.4347 31.7261L33.5935 31.2798L33.7491 30.8269L33.9015 30.3669L34.0509 29.8995L34.1972 29.4244L34.3405 28.9412L34.4809 28.4496L34.6184 27.9491L34.7532 27.4394L34.8852 26.92L35.0146 26.3905L35.1413 25.8504L35.2654 25.2992L35.387 24.7365L35.5061 24.1616L35.6228 23.5741L35.737 22.9733L35.849 22.3587L35.9586 21.7295L36.0659 21.0851L36.171 20.4248L36.2739 19.7478L36.3746 19.0533L36.4733 18.3404L36.5698 17.6083L36.6643 16.856L36.7567 16.0824L36.8472 15.2865L36.9357 14.4672L37.0223 13.6232L37.107 12.7532L37.1898 11.8558L37.2707 10.9296L37.3498 9.97292L37.4272 8.98408L37.5027 7.96125L37.5766 6.90247L37.7601 6L38.7347 6.4807L39.6778 6.94112L40.5911 7.38229L41.4764 7.80514L42.3352 8.21057L43.169 8.59937L43.9791 8.97232L44.7668 9.33011L45.5334 9.67342L46.2799 10.0029L47.0073 10.319L47.7168 10.6224L48.4091 10.9135L49.0853 11.1928L49.7461 11.4608L50.3923 11.7179L51.0246 11.9645L51.6438 12.2009L52.2506 12.4274L52.8455 12.6445L53.4291 12.8523L54.0021 13.0513L54.565 13.2415L55.1184 13.4234L55.6626 13.5972L56.1982 13.763L56.7257 13.921L57.2454 14.0716L57.7579 14.2148L58.2635 14.3508L58.7626 14.4797L59.2555 14.6019L59.7427 14.7173L60.2246 14.8261L60.7013 14.9284L61.1734 15.0244L61.641 15.1141L62.1045 15.1977L62.5642 15.2752L63.0204 15.3468L63.4735 15.4125L63.9235 15.4723L64.371 15.5264L64.8161 15.5747L65.259 15.6174L65.7002 15.6545L66.1397 15.6861L66.5779 15.7121L67.0151 15.7325L67.4514 15.7475L67.8872 15.757L68.3227 15.761L68.7581 15.7596L69.1937 15.7527L69.6297 15.7404L70.0664 15.7225L70.5041 15.6992L70.943 15.6703L71.3833 15.6359L71.8254 15.5958L72.2694 15.5502L72.7157 15.4989L73.1645 15.4418L73.6161 15.3789L74.0707 15.3102L74.5288 15.2355L74.9904 15.1548L75.456 15.068L75.9259 14.9751L76.4004 14.8758L76.8797 14.7701L77.3643 14.6578L77.8545 14.5389L78.3506 14.4133L78.8531 14.2806L79.3622 14.1409L79.8784 13.9939L80.4021 13.8394L80.9338 13.6774L81.4739 13.5075L82.0228 13.3295L82.581 13.1432L83.1491 12.9485L83.7276 12.7449L84.3171 12.5323L84.9181 12.3103L85.5313 12.0787L86.1573 11.837L86.7967 11.585L87.4505 11.3223L88.1192 11.0484L88.8037 10.763L89.5049 10.4655L90.2236 10.1555L90.9609 9.83252L91.7177 9.49591L92.4952 9.14512L93.2944 8.7795L94.1167 8.39836L94.9634 8.00098L95.8359 7.58656L96.7356 7.15425L97.6642 6.70315L98.6235 6.23227L99.2421 6.38329L99.3151 7.45998L99.3899 8.49973L99.4663 9.50458L99.5446 10.4764L99.6247 11.417L99.7066 12.3279L99.7904 13.2108L99.876 14.0671L99.9636 14.8981L100.053 15.705L100.145 16.4891L100.238 17.2514L100.334 17.9931L100.431 18.715L100.531 19.4182L100.633 20.1035L100.737 20.7717L100.843 21.4236L100.952 22.0599L101.063 22.6814L101.176 23.2888L101.291 23.8825L101.409 24.4634L101.53 25.0318L101.652 25.5885L101.778 26.1338L101.906 26.6683L102.037 27.1925L102.17 27.7068L102.306 28.2116L102.445 28.7074L102.587 29.1946L102.732 29.6735L102.88 30.1445L103.031 30.608L103.185 31.0643L103.342 31.5137L103.503 31.9566L103.667 32.3932L103.834 32.8239L104.005 33.2489L104.179 33.6685L104.358 34.0831L104.539 34.4928L104.725 34.8979L104.915 35.2987L105.109 35.6954L105.306 36.0882L105.509 36.4774L105.715 36.8632L105.926 37.2459L106.141 37.6256L106.362 38.0026L106.587 38.3771L106.817 38.7493L107.052 39.1194L107.293 39.4876L107.539 39.8542L107.79 40.2193L108.047 40.5832L108.31 40.9461L108.579 41.3081L108.855 41.6695L109.137 42.0305L109.425 42.3912L109.721 42.752L110.023 43.113L110.333 43.4745L110.65 43.8366L110.975 44.1996L111.308 44.5638L111.65 44.9293L112 45.2963L112.359 45.6652L112.727 46.0362L113.105 46.4096L113.493 46.7855L113.891 47.1644L114.3 47.5464L114.72 47.9318L115.151 48.321L115.594 48.7143L116.05 49.1119L116.518 49.5143L117 49.9218L117.496 50.3348L118.007 50.7536L118.533 51.1787L119.075 51.6104L119.633 52.0493L120.208 52.4958L120.802 52.9503L121.415 53.4135L122.047 53.8859L122.701 54.368L123.376 54.8605L124.074 55.364L124.796 55.8793L125.543 56.407L126.317 56.948L127.118 57.5032L127.95 58.0733L128.812 58.6595L129.708 59.2628L130 59.4587Z" fill="url(#paint0_linear_117_163)"/>
<mask id="mask0_117_163" style="mask-type:alpha" maskUnits="userSpaceOnUse" x="42" y="32" width="54" height="54">
<rect x="42" y="32" width="54" height="54" fill="#D9D9D9"/>
</mask>
<g mask="url(#mask0_117_163)">
<path d="M69 34.25L89.3625 46.4C90.0375 46.8125 90.5625 47.375 90.9375 48.0875C91.3125 48.8 91.5 49.55 91.5 50.3375V74.75C91.5 75.9875 91.0594 77.0469 90.1781 77.9281C89.2969 78.8094 88.2375 79.25 87 79.25H51C49.7625 79.25 48.7031 78.8094 47.8219 77.9281C46.9406 77.0469 46.5 75.9875 46.5 74.75V50.3375C46.5 49.55 46.6875 48.8 47.0625 48.0875C47.4375 47.375 47.9625 46.8125 48.6375 46.4L69 34.25ZM69 60.4625L86.55 50L69 39.5375L51.45 50L69 60.4625ZM69 65.75L51 54.95V74.75H87V54.95L69 65.75Z" fill="white"/>
</g>
<defs>
<linearGradient id="paint0_linear_117_163" x1="-200.74" y1="-136.411" x2="-137.266" y2="-229.002" gradientUnits="userSpaceOnUse">
<stop stop-color="#30E64D"/>
<stop offset="1" stop-color="#6678E3"/>
</linearGradient>
</defs>
</svg>
