<svg width="351" height="225" viewBox="0 0 351 225" fill="none" xmlns="http://www.w3.org/2000/svg">
<rect width="351" height="225" rx="20" fill="white"/>
<path fill-rule="evenodd" clip-rule="evenodd" d="M237 96.4587L236.094 97.0676L235.221 97.6591L234.38 98.2343L233.569 98.7941L232.786 99.3395L232.031 99.8714L231.301 100.391L230.595 100.898L229.913 101.394L229.253 101.879L228.614 102.354L227.995 102.82L227.396 103.278L226.814 103.727L226.251 104.168L225.704 104.602L225.173 105.029L224.657 105.45L224.157 105.865L223.67 106.274L223.198 106.678L222.738 107.077L222.291 107.472L221.856 107.862L221.432 108.249L221.02 108.632L220.619 109.011L220.228 109.388L219.847 109.762L219.475 110.134L219.113 110.504L218.761 110.871L218.416 111.237L218.081 111.602L217.753 111.965L217.433 112.328L217.121 112.689L216.816 113.05L216.519 113.411L216.228 113.772L215.944 114.133L215.666 114.494L215.395 114.856L215.13 115.218L214.871 115.582L214.618 115.947L214.37 116.313L214.128 116.68L213.891 117.05L213.66 117.421L213.433 117.795L213.211 118.171L212.994 118.55L212.782 118.932L212.574 119.317L212.37 119.705L212.171 120.096L211.976 120.492L211.785 120.891L211.598 121.295L211.415 121.703L211.236 122.116L211.06 122.534L210.888 122.958L210.72 123.386L210.555 123.821L210.393 124.262L210.235 124.709L210.08 125.163L209.928 125.624L209.779 126.093L209.633 126.569L209.49 127.054L209.35 127.547L209.213 128.049L209.079 128.56L208.947 129.081L208.818 129.612L208.692 130.154L208.568 130.707L208.447 131.272L208.328 131.848L208.212 132.438L208.098 133.041L207.987 133.658L207.878 134.289L207.771 134.936L207.666 135.599L207.563 136.279L207.463 136.976L207.365 137.692L207.268 138.428L207.174 139.183L207.082 139.96L206.992 140.76L206.904 141.583L206.817 142.431L206.733 143.305L206.651 144.207L206.57 145.138L206.491 146.1L206.414 147.094L206.339 148.122L206.265 149.187L205.936 149.839L204.966 149.362L204.028 148.905L203.119 148.467L202.238 148.047L201.384 147.644L200.554 147.258L199.747 146.887L198.963 146.532L198.2 146.191L197.456 145.863L196.732 145.549L196.025 145.248L195.335 144.959L194.662 144.681L194.003 144.415L193.359 144.159L192.729 143.915L192.112 143.68L191.507 143.455L190.914 143.239L190.332 143.033L189.761 142.835L189.2 142.646L188.648 142.466L188.105 142.293L187.571 142.129L187.044 141.972L186.526 141.822L186.014 141.68L185.51 141.546L185.012 141.418L184.52 141.297L184.034 141.182L183.553 141.075L183.077 140.973L182.605 140.878L182.138 140.79L181.675 140.707L181.216 140.63L180.761 140.56L180.308 140.495L179.858 140.436L179.411 140.383L178.967 140.335L178.524 140.294L178.083 140.257L177.644 140.227L177.206 140.202L176.769 140.182L176.333 140.168L175.897 140.159L175.461 140.156L175.026 140.158L174.59 140.166L174.154 140.179L173.717 140.198L173.279 140.222L172.84 140.252L172.4 140.287L171.957 140.328L171.513 140.375L171.066 140.427L170.617 140.485L170.165 140.549L169.71 140.619L169.251 140.694L168.789 140.776L168.323 140.864L167.852 140.958L167.377 141.058L166.897 141.165L166.411 141.278L165.92 141.398L165.423 141.525L164.92 141.659L164.409 141.799L163.892 141.948L163.367 142.103L162.834 142.267L162.293 142.438L161.742 142.617L161.183 142.805L160.613 143.001L160.033 143.206L159.441 143.42L158.838 143.643L158.223 143.877L157.595 144.12L156.953 144.373L156.297 144.638L155.626 144.914L154.939 145.201L154.235 145.5L153.514 145.812L152.773 146.138L152.013 146.476L151.232 146.829L150.43 147.198L149.603 147.581L148.753 147.981L147.876 148.398L146.972 148.834L146.038 149.288L145.074 149.762L144.6 149.36L144.526 148.289L144.451 147.255L144.375 146.256L144.296 145.289L144.216 144.353L144.134 143.447L144.049 142.568L143.963 141.716L143.876 140.889L143.786 140.086L143.694 139.305L143.6 138.546L143.504 137.808L143.406 137.089L143.306 136.389L143.204 135.706L143.1 135.041L142.993 134.391L142.884 133.757L142.773 133.138L142.659 132.533L142.544 131.941L142.425 131.363L142.304 130.796L142.181 130.241L142.055 129.698L141.927 129.165L141.796 128.642L141.662 128.13L141.525 127.626L141.386 127.132L141.243 126.646L141.098 126.168L140.949 125.699L140.798 125.236L140.643 124.781L140.486 124.333L140.325 123.891L140.16 123.455L139.992 123.025L139.821 122.601L139.646 122.182L139.467 121.769L139.285 121.36L139.098 120.955L138.908 120.555L138.714 120.159L138.515 119.767L138.312 119.378L138.105 118.993L137.893 118.611L137.677 118.232L137.456 117.855L137.23 117.481L136.999 117.109L136.763 116.739L136.522 116.371L136.275 116.005L136.023 115.64L135.765 115.276L135.501 114.914L135.23 114.552L134.954 114.19L134.671 113.829L134.382 113.469L134.085 113.108L133.781 112.747L133.47 112.385L133.152 112.023L132.826 111.66L132.491 111.295L132.148 110.93L131.797 110.562L131.436 110.193L131.066 109.822L130.687 109.448L130.298 109.072L129.898 108.692L129.487 108.31L129.066 107.924L128.633 107.534L128.188 107.14L127.73 106.742L127.259 106.338L126.775 105.93L126.277 105.516L125.764 105.096L125.235 104.67L124.691 104.238L124.13 103.797L123.552 103.35L122.955 102.894L122.339 102.429L121.703 101.955L121.047 101.472L120.368 100.977L119.666 100.472L118.94 99.9549L118.189 99.4251L117.411 98.8819L116.605 98.3244L115.768 97.7518L114.901 97.1629L114 96.5569L114.618 95.9456L115.495 95.3514L116.341 94.7737L117.157 94.2114L117.944 93.6638L118.704 93.1298L119.438 92.6087L120.147 92.0996L120.833 91.602L121.497 91.115L122.139 90.638L122.761 90.1705L123.364 89.7119L123.948 89.2617L124.514 88.8192L125.064 88.3841L125.597 87.9559L126.115 87.5342L126.618 87.1185L127.106 86.7084L127.581 86.3036L128.043 85.9037L128.492 85.5084L128.929 85.1173L129.354 84.7301L129.768 84.3465L130.171 83.9662L130.564 83.5889L130.947 83.2143L131.319 82.8422L131.683 82.4724L132.037 82.1044L132.383 81.7382L132.72 81.3735L133.049 81.0099L133.37 80.6474L133.683 80.2857L133.989 79.9245L134.288 79.5636L134.58 79.2028L134.865 78.842L135.143 78.4808L135.415 78.1191L135.681 77.7567L135.941 77.3933L136.195 77.0288L136.444 76.663L136.687 76.2955L136.925 75.9263L137.157 75.5552L137.385 75.1818L137.607 74.806L137.825 74.4277L138.038 74.0464L138.247 73.6621L138.451 73.2746L138.651 72.8835L138.846 72.4887L139.038 72.0899L139.226 71.6869L139.409 71.2794L139.589 70.8672L139.765 70.4501L139.938 70.0276L140.107 69.5997L140.273 69.1659L140.435 68.7261L140.594 68.2798L140.749 67.8269L140.902 67.3669L141.051 66.8995L141.197 66.4244L141.34 65.9412L141.481 65.4496L141.618 64.9491L141.753 64.4394L141.885 63.92L142.015 63.3905L142.141 62.8504L142.265 62.2992L142.387 61.7365L142.506 61.1616L142.623 60.5741L142.737 59.9733L142.849 59.3587L142.959 58.7295L143.066 58.0851L143.171 57.4248L143.274 56.7478L143.375 56.0533L143.473 55.3404L143.57 54.6083L143.664 53.856L143.757 53.0824L143.847 52.2865L143.936 51.4672L144.022 50.6232L144.107 49.7532L144.19 48.8558L144.271 47.9296L144.35 46.9729L144.427 45.9841L144.503 44.9613L144.577 43.9025L144.76 43L145.735 43.4807L146.678 43.9411L147.591 44.3823L148.476 44.8051L149.335 45.2106L150.169 45.5994L150.979 45.9723L151.767 46.3301L152.533 46.6734L153.28 47.0029L154.007 47.319L154.717 47.6224L155.409 47.9135L156.085 48.1928L156.746 48.4608L157.392 48.7179L158.025 48.9645L158.644 49.2009L159.251 49.4274L159.845 49.6445L160.429 49.8523L161.002 50.0513L161.565 50.2415L162.118 50.4234L162.663 50.5972L163.198 50.763L163.726 50.921L164.245 51.0716L164.758 51.2148L165.263 51.3508L165.763 51.4797L166.256 51.6019L166.743 51.7173L167.225 51.8261L167.701 51.9284L168.173 52.0244L168.641 52.1141L169.104 52.1977L169.564 52.2752L170.02 52.3468L170.473 52.4125L170.924 52.4723L171.371 52.5264L171.816 52.5747L172.259 52.6174L172.7 52.6545L173.14 52.6861L173.578 52.7121L174.015 52.7325L174.451 52.7475L174.887 52.757L175.323 52.761L175.758 52.7596L176.194 52.7527L176.63 52.7404L177.066 52.7225L177.504 52.6992L177.943 52.6703L178.383 52.6359L178.825 52.5958L179.269 52.5502L179.716 52.4989L180.164 52.4418L180.616 52.3789L181.071 52.3102L181.529 52.2355L181.99 52.1548L182.456 52.068L182.926 51.9751L183.4 51.8758L183.88 51.7701L184.364 51.6578L184.855 51.5389L185.351 51.4133L185.853 51.2806L186.362 51.1409L186.878 50.9939L187.402 50.8394L187.934 50.6774L188.474 50.5075L189.023 50.3295L189.581 50.1432L190.149 49.9485L190.728 49.7449L191.317 49.5323L191.918 49.3103L192.531 49.0787L193.157 48.837L193.797 48.585L194.45 48.3223L195.119 48.0484L195.804 47.763L196.505 47.4655L197.224 47.1555L197.961 46.8325L198.718 46.4959L199.495 46.1451L200.294 45.7795L201.117 45.3984L201.963 45.001L202.836 44.5866L203.736 44.1543L204.664 43.7032L205.624 43.2323L206.242 43.3833L206.315 44.46L206.39 45.4997L206.466 46.5046L206.545 47.4764L206.625 48.417L206.707 49.3279L206.79 50.2108L206.876 51.0671L206.964 51.8981L207.053 52.705L207.145 53.4891L207.238 54.2514L207.334 54.9931L207.431 55.715L207.531 56.4182L207.633 57.1035L207.737 57.7717L207.843 58.4236L207.952 59.0599L208.063 59.6814L208.176 60.2888L208.291 60.8825L208.409 61.4634L208.53 62.0318L208.652 62.5885L208.778 63.1338L208.906 63.6683L209.037 64.1925L209.17 64.7068L209.306 65.2116L209.445 65.7074L209.587 66.1946L209.732 66.6735L209.88 67.1445L210.031 67.608L210.185 68.0643L210.342 68.5137L210.503 68.9566L210.667 69.3932L210.834 69.8239L211.005 70.2489L211.179 70.6685L211.358 71.0831L211.539 71.4928L211.725 71.8979L211.915 72.2987L212.109 72.6954L212.306 73.0882L212.508 73.4774L212.715 73.8632L212.926 74.2459L213.141 74.6256L213.362 75.0026L213.587 75.3771L213.817 75.7493L214.052 76.1194L214.293 76.4876L214.539 76.8542L214.79 77.2193L215.047 77.5832L215.31 77.9461L215.579 78.3081L215.855 78.6695L216.137 79.0304L216.425 79.3912L216.721 79.752L217.023 80.113L217.333 80.4745L217.65 80.8366L217.975 81.1996L218.308 81.5638L218.65 81.9293L219 82.2963L219.359 82.6652L219.727 83.0362L220.105 83.4096L220.493 83.7855L220.891 84.1644L221.3 84.5464L221.72 84.9318L222.151 85.321L222.594 85.7143L223.05 86.1119L223.518 86.5144L224 86.9218L224.496 87.3348L225.007 87.7536L225.533 88.1787L226.075 88.6104L226.633 89.0493L227.208 89.4958L227.802 89.9503L228.415 90.4135L229.047 90.8859L229.701 91.368L230.376 91.8605L231.074 92.364L231.796 92.8793L232.543 93.407L233.317 93.948L234.118 94.5032L234.95 95.0733L235.812 95.6595L236.708 96.2628L237 96.4587Z" fill="url(#paint0_linear_209_538)"/>
<mask id="mask0_209_538" style="mask-type:alpha" maskUnits="userSpaceOnUse" x="149" y="69" width="54" height="54">
<rect x="149" y="69" width="54" height="54" fill="#D9D9D9"/>
</mask>
<g mask="url(#mask0_209_538)">
<path d="M170.487 109.5L157.662 96.675L160.869 93.4688L170.487 103.088L191.131 82.4438L194.337 85.65L170.487 109.5Z" fill="white"/>
</g>
<path d="M91.629 188V176.8H96.237C97.229 176.8 98.077 176.96 98.781 177.28C99.4957 177.6 100.045 178.059 100.429 178.656C100.813 179.253 101.005 179.963 101.005 180.784C101.005 181.605 100.813 182.315 100.429 182.912C100.045 183.509 99.4957 183.968 98.781 184.288C98.077 184.608 97.229 184.768 96.237 184.768H92.781L93.709 183.792V188H91.629ZM93.709 184.016L92.781 183.008H96.141C97.0583 183.008 97.7463 182.816 98.205 182.432C98.6743 182.037 98.909 181.488 98.909 180.784C98.909 180.069 98.6743 179.52 98.205 179.136C97.7463 178.752 97.0583 178.56 96.141 178.56H92.781L93.709 177.536V184.016ZM108.076 188V186.272L107.964 185.904V182.88C107.964 182.293 107.788 181.84 107.436 181.52C107.084 181.189 106.551 181.024 105.836 181.024C105.356 181.024 104.881 181.099 104.412 181.248C103.953 181.397 103.564 181.605 103.244 181.872L102.46 180.416C102.919 180.064 103.463 179.803 104.092 179.632C104.732 179.451 105.393 179.36 106.076 179.36C107.313 179.36 108.268 179.659 108.94 180.256C109.623 180.843 109.964 181.755 109.964 182.992V188H108.076ZM105.388 188.112C104.748 188.112 104.188 188.005 103.708 187.792C103.228 187.568 102.855 187.264 102.588 186.88C102.332 186.485 102.204 186.043 102.204 185.552C102.204 185.072 102.316 184.64 102.54 184.256C102.775 183.872 103.153 183.568 103.676 183.344C104.199 183.12 104.892 183.008 105.756 183.008H108.236V184.336H105.9C105.217 184.336 104.759 184.448 104.524 184.672C104.289 184.885 104.172 185.152 104.172 185.472C104.172 185.835 104.316 186.123 104.604 186.336C104.892 186.549 105.292 186.656 105.804 186.656C106.295 186.656 106.732 186.544 107.116 186.32C107.511 186.096 107.793 185.765 107.964 185.328L108.3 186.528C108.108 187.029 107.761 187.419 107.26 187.696C106.769 187.973 106.145 188.112 105.388 188.112ZM113.079 191.216C112.663 191.216 112.247 191.147 111.831 191.008C111.415 190.869 111.068 190.677 110.79 190.432L111.59 188.96C111.793 189.141 112.023 189.285 112.279 189.392C112.535 189.499 112.796 189.552 113.062 189.552C113.425 189.552 113.719 189.461 113.943 189.28C114.167 189.099 114.375 188.795 114.567 188.368L115.062 187.248L115.223 187.008L118.455 179.456H120.375L116.375 188.688C116.108 189.328 115.809 189.835 115.479 190.208C115.159 190.581 114.796 190.843 114.391 190.992C113.996 191.141 113.559 191.216 113.079 191.216ZM114.839 188.304L110.982 179.456H113.062L116.199 186.832L114.839 188.304ZM132.409 179.36C133.091 179.36 133.694 179.493 134.217 179.76C134.75 180.027 135.166 180.437 135.465 180.992C135.763 181.536 135.913 182.24 135.913 183.104V188H133.913V183.36C133.913 182.603 133.747 182.037 133.417 181.664C133.086 181.291 132.611 181.104 131.993 181.104C131.555 181.104 131.166 181.2 130.825 181.392C130.494 181.584 130.233 181.867 130.041 182.24C129.859 182.613 129.769 183.088 129.769 183.664V188H127.769V183.36C127.769 182.603 127.603 182.037 127.273 181.664C126.942 181.291 126.467 181.104 125.849 181.104C125.411 181.104 125.022 181.2 124.681 181.392C124.35 181.584 124.089 181.867 123.897 182.24C123.715 182.613 123.625 183.088 123.625 183.664V188H121.625V179.456H123.529V181.728L123.193 181.056C123.481 180.501 123.897 180.08 124.441 179.792C124.995 179.504 125.625 179.36 126.329 179.36C127.129 179.36 127.822 179.557 128.409 179.952C129.006 180.347 129.401 180.944 129.593 181.744L128.809 181.472C129.086 180.832 129.545 180.32 130.185 179.936C130.825 179.552 131.566 179.36 132.409 179.36ZM142.5 188.112C141.551 188.112 140.719 187.925 140.004 187.552C139.3 187.168 138.751 186.645 138.356 185.984C137.972 185.323 137.78 184.571 137.78 183.728C137.78 182.875 137.967 182.123 138.34 181.472C138.724 180.811 139.247 180.293 139.908 179.92C140.58 179.547 141.343 179.36 142.196 179.36C143.028 179.36 143.769 179.541 144.42 179.904C145.071 180.267 145.583 180.779 145.956 181.44C146.329 182.101 146.516 182.88 146.516 183.776C146.516 183.861 146.511 183.957 146.5 184.064C146.5 184.171 146.495 184.272 146.484 184.368H139.364V183.04H145.428L144.644 183.456C144.655 182.965 144.553 182.533 144.34 182.16C144.127 181.787 143.833 181.493 143.46 181.28C143.097 181.067 142.676 180.96 142.196 180.96C141.705 180.96 141.273 181.067 140.9 181.28C140.537 181.493 140.249 181.792 140.036 182.176C139.833 182.549 139.732 182.992 139.732 183.504V183.824C139.732 184.336 139.849 184.789 140.084 185.184C140.319 185.579 140.649 185.883 141.076 186.096C141.503 186.309 141.993 186.416 142.548 186.416C143.028 186.416 143.46 186.341 143.844 186.192C144.228 186.043 144.569 185.808 144.868 185.488L145.94 186.72C145.556 187.168 145.071 187.515 144.484 187.76C143.908 187.995 143.247 188.112 142.5 188.112ZM153.285 179.36C153.968 179.36 154.576 179.493 155.109 179.76C155.653 180.027 156.08 180.437 156.389 180.992C156.698 181.536 156.853 182.24 156.853 183.104V188H154.853V183.36C154.853 182.603 154.672 182.037 154.309 181.664C153.957 181.291 153.461 181.104 152.821 181.104C152.352 181.104 151.936 181.2 151.573 181.392C151.21 181.584 150.928 181.872 150.725 182.256C150.533 182.629 150.437 183.104 150.437 183.68V188H148.437V179.456H150.341V181.76L150.005 181.056C150.304 180.512 150.736 180.096 151.301 179.808C151.877 179.509 152.538 179.36 153.285 179.36ZM162.606 188.112C161.667 188.112 160.942 187.872 160.43 187.392C159.918 186.901 159.662 186.181 159.662 185.232V177.568H161.662V185.184C161.662 185.589 161.763 185.904 161.966 186.128C162.179 186.352 162.473 186.464 162.846 186.464C163.294 186.464 163.667 186.347 163.966 186.112L164.526 187.536C164.291 187.728 164.003 187.872 163.662 187.968C163.321 188.064 162.969 188.112 162.606 188.112ZM158.254 181.12V179.52H163.95V181.12H158.254ZM174.257 188.16C173.383 188.16 172.545 188.037 171.745 187.792C170.945 187.536 170.311 187.211 169.841 186.816L170.561 185.2C171.009 185.552 171.564 185.845 172.225 186.08C172.887 186.315 173.564 186.432 174.257 186.432C174.844 186.432 175.319 186.368 175.681 186.24C176.044 186.112 176.311 185.941 176.481 185.728C176.652 185.504 176.737 185.253 176.737 184.976C176.737 184.635 176.615 184.363 176.369 184.16C176.124 183.947 175.804 183.781 175.409 183.664C175.025 183.536 174.593 183.419 174.113 183.312C173.644 183.205 173.169 183.083 172.689 182.944C172.22 182.795 171.788 182.608 171.393 182.384C171.009 182.149 170.695 181.84 170.449 181.456C170.204 181.072 170.081 180.581 170.081 179.984C170.081 179.376 170.241 178.821 170.561 178.32C170.892 177.808 171.388 177.403 172.049 177.104C172.721 176.795 173.569 176.64 174.593 176.64C175.265 176.64 175.932 176.725 176.593 176.896C177.255 177.067 177.831 177.312 178.321 177.632L177.665 179.248C177.164 178.949 176.647 178.731 176.113 178.592C175.58 178.443 175.068 178.368 174.577 178.368C174.001 178.368 173.532 178.437 173.169 178.576C172.817 178.715 172.556 178.896 172.385 179.12C172.225 179.344 172.145 179.6 172.145 179.888C172.145 180.229 172.263 180.507 172.497 180.72C172.743 180.923 173.057 181.083 173.441 181.2C173.836 181.317 174.273 181.435 174.753 181.552C175.233 181.659 175.708 181.781 176.177 181.92C176.657 182.059 177.089 182.24 177.473 182.464C177.868 182.688 178.183 182.992 178.417 183.376C178.663 183.76 178.785 184.245 178.785 184.832C178.785 185.429 178.62 185.984 178.289 186.496C177.969 186.997 177.473 187.403 176.801 187.712C176.129 188.011 175.281 188.16 174.257 188.16ZM184.272 188.112C183.546 188.112 182.906 187.979 182.352 187.712C181.797 187.435 181.365 187.019 181.056 186.464C180.746 185.899 180.592 185.189 180.592 184.336V179.456H182.592V184.064C182.592 184.832 182.762 185.408 183.104 185.792C183.456 186.165 183.952 186.352 184.592 186.352C185.061 186.352 185.466 186.256 185.808 186.064C186.16 185.872 186.432 185.584 186.624 185.2C186.826 184.816 186.928 184.341 186.928 183.776V179.456H188.928V188H187.024V185.696L187.36 186.4C187.072 186.955 186.65 187.381 186.096 187.68C185.541 187.968 184.933 188.112 184.272 188.112ZM195.466 188.112C194.57 188.112 193.77 187.925 193.066 187.552C192.373 187.168 191.829 186.645 191.434 185.984C191.04 185.323 190.842 184.571 190.842 183.728C190.842 182.875 191.04 182.123 191.434 181.472C191.829 180.811 192.373 180.293 193.066 179.92C193.77 179.547 194.57 179.36 195.466 179.36C196.298 179.36 197.029 179.531 197.658 179.872C198.298 180.203 198.784 180.693 199.114 181.344L197.578 182.24C197.322 181.835 197.008 181.536 196.634 181.344C196.272 181.152 195.877 181.056 195.45 181.056C194.96 181.056 194.517 181.163 194.122 181.376C193.728 181.589 193.418 181.899 193.194 182.304C192.97 182.699 192.858 183.173 192.858 183.728C192.858 184.283 192.97 184.763 193.194 185.168C193.418 185.563 193.728 185.867 194.122 186.08C194.517 186.293 194.96 186.4 195.45 186.4C195.877 186.4 196.272 186.304 196.634 186.112C197.008 185.92 197.322 185.621 197.578 185.216L199.114 186.112C198.784 186.752 198.298 187.248 197.658 187.6C197.029 187.941 196.298 188.112 195.466 188.112ZM204.638 188.112C203.742 188.112 202.942 187.925 202.238 187.552C201.545 187.168 201.001 186.645 200.606 185.984C200.212 185.323 200.014 184.571 200.014 183.728C200.014 182.875 200.212 182.123 200.606 181.472C201.001 180.811 201.545 180.293 202.238 179.92C202.942 179.547 203.742 179.36 204.638 179.36C205.47 179.36 206.201 179.531 206.83 179.872C207.47 180.203 207.956 180.693 208.286 181.344L206.75 182.24C206.494 181.835 206.18 181.536 205.806 181.344C205.444 181.152 205.049 181.056 204.622 181.056C204.132 181.056 203.689 181.163 203.294 181.376C202.9 181.589 202.59 181.899 202.366 182.304C202.142 182.699 202.03 183.173 202.03 183.728C202.03 184.283 202.142 184.763 202.366 185.168C202.59 185.563 202.9 185.867 203.294 186.08C203.689 186.293 204.132 186.4 204.622 186.4C205.049 186.4 205.444 186.304 205.806 186.112C206.18 185.92 206.494 185.621 206.75 185.216L208.286 186.112C207.956 186.752 207.47 187.248 206.83 187.6C206.201 187.941 205.47 188.112 204.638 188.112ZM213.906 188.112C212.957 188.112 212.125 187.925 211.41 187.552C210.706 187.168 210.157 186.645 209.762 185.984C209.378 185.323 209.186 184.571 209.186 183.728C209.186 182.875 209.373 182.123 209.746 181.472C210.13 180.811 210.653 180.293 211.314 179.92C211.986 179.547 212.749 179.36 213.602 179.36C214.434 179.36 215.175 179.541 215.826 179.904C216.477 180.267 216.989 180.779 217.362 181.44C217.735 182.101 217.922 182.88 217.922 183.776C217.922 183.861 217.917 183.957 217.906 184.064C217.906 184.171 217.901 184.272 217.89 184.368H210.77V183.04H216.834L216.05 183.456C216.061 182.965 215.959 182.533 215.746 182.16C215.533 181.787 215.239 181.493 214.866 181.28C214.503 181.067 214.082 180.96 213.602 180.96C213.111 180.96 212.679 181.067 212.306 181.28C211.943 181.493 211.655 181.792 211.442 182.176C211.239 182.549 211.138 182.992 211.138 183.504V183.824C211.138 184.336 211.255 184.789 211.49 185.184C211.725 185.579 212.055 185.883 212.482 186.096C212.909 186.309 213.399 186.416 213.954 186.416C214.434 186.416 214.866 186.341 215.25 186.192C215.634 186.043 215.975 185.808 216.274 185.488L217.346 186.72C216.962 187.168 216.477 187.515 215.89 187.76C215.314 187.995 214.653 188.112 213.906 188.112ZM222.483 188.112C221.769 188.112 221.081 188.021 220.419 187.84C219.769 187.648 219.251 187.419 218.867 187.152L219.635 185.632C220.019 185.877 220.478 186.08 221.011 186.24C221.545 186.4 222.078 186.48 222.611 186.48C223.241 186.48 223.694 186.395 223.971 186.224C224.259 186.053 224.403 185.824 224.403 185.536C224.403 185.301 224.307 185.125 224.115 185.008C223.923 184.88 223.673 184.784 223.363 184.72C223.054 184.656 222.707 184.597 222.323 184.544C221.95 184.491 221.571 184.421 221.187 184.336C220.814 184.24 220.473 184.107 220.163 183.936C219.854 183.755 219.603 183.515 219.411 183.216C219.219 182.917 219.123 182.523 219.123 182.032C219.123 181.488 219.278 181.019 219.587 180.624C219.897 180.219 220.329 179.909 220.883 179.696C221.449 179.472 222.115 179.36 222.883 179.36C223.459 179.36 224.041 179.424 224.627 179.552C225.214 179.68 225.699 179.861 226.083 180.096L225.315 181.616C224.91 181.371 224.499 181.205 224.083 181.12C223.678 181.024 223.273 180.976 222.867 180.976C222.259 180.976 221.806 181.067 221.507 181.248C221.219 181.429 221.075 181.659 221.075 181.936C221.075 182.192 221.171 182.384 221.363 182.512C221.555 182.64 221.806 182.741 222.115 182.816C222.425 182.891 222.766 182.955 223.139 183.008C223.523 183.051 223.902 183.12 224.275 183.216C224.649 183.312 224.99 183.445 225.299 183.616C225.619 183.776 225.875 184.005 226.067 184.304C226.259 184.603 226.355 184.992 226.355 185.472C226.355 186.005 226.195 186.469 225.875 186.864C225.566 187.259 225.123 187.568 224.547 187.792C223.971 188.005 223.283 188.112 222.483 188.112ZM230.718 188.112C230.003 188.112 229.315 188.021 228.654 187.84C228.003 187.648 227.486 187.419 227.102 187.152L227.87 185.632C228.254 185.877 228.712 186.08 229.246 186.24C229.779 186.4 230.312 186.48 230.846 186.48C231.475 186.48 231.928 186.395 232.206 186.224C232.494 186.053 232.638 185.824 232.638 185.536C232.638 185.301 232.542 185.125 232.35 185.008C232.158 184.88 231.907 184.784 231.598 184.72C231.288 184.656 230.942 184.597 230.558 184.544C230.184 184.491 229.806 184.421 229.422 184.336C229.048 184.24 228.707 184.107 228.398 183.936C228.088 183.755 227.838 183.515 227.646 183.216C227.454 182.917 227.358 182.523 227.358 182.032C227.358 181.488 227.512 181.019 227.822 180.624C228.131 180.219 228.563 179.909 229.118 179.696C229.683 179.472 230.35 179.36 231.118 179.36C231.694 179.36 232.275 179.424 232.862 179.552C233.448 179.68 233.934 179.861 234.318 180.096L233.55 181.616C233.144 181.371 232.734 181.205 232.318 181.12C231.912 181.024 231.507 180.976 231.102 180.976C230.494 180.976 230.04 181.067 229.742 181.248C229.454 181.429 229.31 181.659 229.31 181.936C229.31 182.192 229.406 182.384 229.598 182.512C229.79 182.64 230.04 182.741 230.35 182.816C230.659 182.891 231 182.955 231.374 183.008C231.758 183.051 232.136 183.12 232.51 183.216C232.883 183.312 233.224 183.445 233.534 183.616C233.854 183.776 234.11 184.005 234.302 184.304C234.494 184.603 234.59 184.992 234.59 185.472C234.59 186.005 234.43 186.469 234.11 186.864C233.8 187.259 233.358 187.568 232.782 187.792C232.206 188.005 231.518 188.112 230.718 188.112ZM236.584 188V178.976C236.584 178.08 236.845 177.365 237.368 176.832C237.901 176.288 238.659 176.016 239.64 176.016C239.992 176.016 240.323 176.053 240.632 176.128C240.952 176.203 241.219 176.32 241.432 176.48L240.888 177.984C240.739 177.867 240.568 177.781 240.376 177.728C240.184 177.664 239.987 177.632 239.784 177.632C239.368 177.632 239.053 177.749 238.84 177.984C238.627 178.208 238.52 178.549 238.52 179.008V179.968L238.584 180.864V188H236.584ZM235.176 181.12V179.52H240.872V181.12H235.176ZM245.834 188.112C245.109 188.112 244.469 187.979 243.914 187.712C243.36 187.435 242.928 187.019 242.618 186.464C242.309 185.899 242.154 185.189 242.154 184.336V179.456H244.154V184.064C244.154 184.832 244.325 185.408 244.666 185.792C245.018 186.165 245.514 186.352 246.154 186.352C246.624 186.352 247.029 186.256 247.37 186.064C247.722 185.872 247.994 185.584 248.186 185.2C248.389 184.816 248.49 184.341 248.49 183.776V179.456H250.49V188H248.586V185.696L248.922 186.4C248.634 186.955 248.213 187.381 247.658 187.68C247.104 187.968 246.496 188.112 245.834 188.112ZM253.109 188V176.128H255.109V188H253.109ZM257.862 184.288L257.478 176.8H259.846L259.446 184.288H257.862ZM258.662 188.112C258.289 188.112 257.979 187.989 257.734 187.744C257.489 187.499 257.366 187.205 257.366 186.864C257.366 186.523 257.489 186.235 257.734 186C257.979 185.755 258.289 185.632 258.662 185.632C259.035 185.632 259.339 185.755 259.574 186C259.809 186.235 259.926 186.523 259.926 186.864C259.926 187.205 259.809 187.499 259.574 187.744C259.339 187.989 259.035 188.112 258.662 188.112Z" fill="black"/>
<defs>
<linearGradient id="paint0_linear_209_538" x1="-93.7396" y1="-99.4107" x2="-30.2658" y2="-192.002" gradientUnits="userSpaceOnUse">
<stop stop-color="#30E64D"/>
<stop offset="1" stop-color="#6678E3"/>
</linearGradient>
</defs>
</svg>
