<svg width="16" height="16" viewBox="0 0 16 16" fill="none" xmlns="http://www.w3.org/2000/svg">
<g clip-path="url(#clip0_209_481)">
<path d="M12.5556 5.70171C12.5558 4.81911 12.3283 3.95138 11.8949 3.1825C11.4616 2.41362 10.8371 1.76965 10.0818 1.31292C9.3266 0.856194 8.46624 0.602175 7.58404 0.575455C6.70185 0.548736 5.8277 0.750221 5.04621 1.16041C4.26472 1.57059 3.60235 2.17559 3.12325 2.91683C2.64413 3.65806 2.3645 4.51044 2.31141 5.39144C2.25832 6.27244 2.43357 7.15223 2.8202 7.94563C3.20684 8.73904 3.79175 9.41924 4.51833 9.92028L2.30212 13.758L3.95439 13.8261L4.83912 15.2227L7.37757 10.8255C7.39515 10.8255 7.41126 10.8284 7.42884 10.8284C7.44641 10.8284 7.46253 10.8262 7.48011 10.8255L10.0186 15.2227L10.9209 13.8561L12.5556 13.758L10.3393 9.92028C11.0231 9.44947 11.5822 8.81948 11.9682 8.08457C12.3543 7.34965 12.5558 6.53187 12.5556 5.70171ZM3.7669 5.70171C3.7669 4.97744 3.98167 4.26945 4.38405 3.66725C4.78643 3.06504 5.35834 2.59568 6.02748 2.31852C6.69661 2.04136 7.43291 1.96884 8.14325 2.11013C8.85359 2.25143 9.50609 2.6002 10.0182 3.11233C10.5304 3.62446 10.8791 4.27695 11.0204 4.9873C11.1617 5.69765 11.0892 6.43394 10.812 7.10307C10.5349 7.77221 10.0655 8.34412 9.4633 8.7465C8.8611 9.14888 8.1531 9.36369 7.42884 9.36369C6.45764 9.36369 5.52621 8.97783 4.83946 8.29109C4.15271 7.60434 3.7669 6.67291 3.7669 5.70171Z" fill="white" fill-opacity="0.7"/>
<path d="M7.4291 7.89886C8.64256 7.89886 9.62626 6.91515 9.62626 5.7017C9.62626 4.48824 8.64256 3.50453 7.4291 3.50453C6.21563 3.50453 5.23193 4.48824 5.23193 5.7017C5.23193 6.91515 6.21563 7.89886 7.4291 7.89886Z" fill="white" fill-opacity="0.7"/>
</g>
<defs>
<clipPath id="clip0_209_481">
<rect width="14.9407" height="14.9407" fill="white" transform="translate(0.105103 0.57312)"/>
</clipPath>
</defs>
</svg>
