<svg width="16" height="16" viewBox="0 0 16 16" fill="none" xmlns="http://www.w3.org/2000/svg">
<g clip-path="url(#clip0_209_472)">
<path d="M1.88395 7.91702C1.9144 6.4395 2.51574 5.03115 3.56187 3.9873C4.08874 3.46042 4.70154 3.0454 5.38406 2.75683C6.09089 2.45853 6.84149 2.30614 7.61479 2.30614C8.38971 2.30614 9.1403 2.45691 9.8455 2.75683C10.528 3.0454 11.1409 3.46042 11.6677 3.9873C11.8299 4.14941 11.9806 4.31964 12.1201 4.49634L11.3094 5.13022C11.2901 5.14516 11.2754 5.16525 11.267 5.18817C11.2586 5.21109 11.2569 5.23592 11.262 5.2598C11.267 5.28368 11.2787 5.30563 11.2957 5.32316C11.3128 5.34067 11.3343 5.35303 11.3581 5.35881L13.9001 5.97972C13.9812 5.99917 14.0606 5.93757 14.0606 5.85489L14.0736 3.23669C14.0736 3.12807 13.9487 3.06648 13.8644 3.13457L13.0895 3.74088C11.8185 2.11485 9.83902 1.07243 7.61641 1.07243C3.81477 1.07243 0.723194 4.12186 0.653483 7.91053C0.65305 7.92784 0.656085 7.94505 0.662409 7.96116C0.668732 7.97727 0.678217 7.99196 0.690303 8.00434C0.70239 8.01673 0.716835 8.02658 0.732785 8.03329C0.748735 8.04002 0.765869 8.04348 0.783177 8.04347H1.75588C1.82559 8.04347 1.88233 7.98673 1.88395 7.91702ZM14.4658 8.04347H13.4932C13.4235 8.04347 13.3651 8.10021 13.3635 8.16992C13.333 9.64744 12.7317 11.0558 11.6855 12.0996C11.1635 12.6239 10.5446 13.0417 9.86334 13.3301C9.15656 13.6284 8.40593 13.7808 7.63262 13.7808C6.85932 13.7808 6.1071 13.63 5.40189 13.3301C4.72058 13.0417 4.10174 12.6239 3.57969 12.0996C3.41758 11.9375 3.26681 11.7673 3.12739 11.5906L3.93636 10.9567C3.95566 10.9418 3.97037 10.9217 3.97877 10.8988C3.98717 10.8758 3.98894 10.851 3.98385 10.8272C3.97877 10.8033 3.96706 10.7813 3.95005 10.7638C3.93304 10.7462 3.91144 10.7339 3.88772 10.7281L1.34573 10.1072C1.26467 10.0878 1.18523 10.1494 1.18523 10.232L1.17226 12.8535C1.17226 12.9621 1.29709 13.0237 1.38139 12.9556L2.15631 12.3493C3.43055 13.9721 5.41 15.0145 7.63262 15.0145C11.4343 15.0145 14.5258 11.9651 14.5956 8.17641C14.596 8.1591 14.593 8.14189 14.5866 8.12578C14.5803 8.10966 14.5708 8.09498 14.5587 8.0826C14.5467 8.0702 14.5322 8.06036 14.5162 8.05365C14.5003 8.04692 14.4832 8.04346 14.4658 8.04347Z" fill="white" fill-opacity="0.7"/>
<path d="M9.34145 5.98286V5.29599H5.56372V5.98286H6.76573C7.21288 5.98286 7.59031 6.27065 7.73249 6.66971H5.56372V7.35658H7.73249C7.66199 7.55688 7.53121 7.73044 7.35812 7.85342C7.18501 7.97641 6.97807 8.04279 6.76573 8.04344H5.56372V8.87248L7.48213 10.7909H8.45335L6.39276 8.7303H6.76573C7.16136 8.72977 7.54469 8.59285 7.85111 8.3426C8.15754 8.09236 8.36829 7.74412 8.44786 7.35658H9.34145V6.66971H8.44786C8.39522 6.41976 8.28673 6.18495 8.13053 5.98286H9.34145Z" fill="white" fill-opacity="0.7"/>
</g>
<defs>
<clipPath id="clip0_209_472">
<rect width="14.9407" height="14.9407" fill="white" transform="translate(0.154297 0.57312)"/>
</clipPath>
</defs>
</svg>
